<svg width="110" height="25" viewBox="0 0 110 25" fill="none" xmlns="http://www.w3.org/2000/svg">
<path fill-rule="evenodd" clip-rule="evenodd" d="M20.4558 4.35904C20.4558 6.76648 18.5042 8.71809 16.0967 8.71809C13.6893 8.71809 11.7377 6.76648 11.7377 4.35904C11.7377 1.95161 13.6893 0 16.0967 0C18.5042 0 20.4558 1.95161 20.4558 4.35904ZM39.6238 24.3536C39.6238 15.8879 32.7631 9.02725 24.2974 9.02725C15.8317 9.02725 8.97104 15.8879 8.97104 24.3536H39.6238ZM4.35904 20.3751C6.76648 20.3751 8.71809 18.4235 8.71809 16.0161C8.71809 13.6086 6.76648 11.657 4.35904 11.657C1.95161 11.657 0 13.6086 0 16.0161C0 18.4235 1.95161 20.3751 4.35904 20.3751ZM32.635 8.77387C35.0424 8.77387 36.994 6.82226 36.994 4.41483C36.994 2.0074 35.0424 0.0557856 32.635 0.0557856C30.2275 0.0557856 28.2759 2.0074 28.2759 4.41483C28.2759 6.82226 30.2275 8.77387 32.635 8.77387ZM48.6494 16.1511C48.6494 18.5585 46.6978 20.5101 44.2904 20.5101C41.883 20.5101 39.9313 18.5585 39.9313 16.1511C39.9313 13.7436 41.883 11.792 44.2904 11.792C46.6978 11.792 48.6494 13.7436 48.6494 16.1511Z" fill="#FFFFFC"/>
<path fill-rule="evenodd" clip-rule="evenodd" d="M97.4443 12.1184V5.16295L97.4369 5.15554H95.3258V13.9703C96.7628 13.9703 98.022 13.9629 99.0887 13.948C100.163 13.9332 101.118 13.9036 101.978 13.8592C102.837 13.8147 103.489 13.7036 104.2 13.5481C104.718 13.4369 105.629 13.0888 106.333 12.6518L106.348 10.6518C105.6 11.1925 105.007 11.3851 104.259 11.6221C103.592 11.8296 102.741 11.9999 102.044 12.0295C101.348 12.0592 100.629 12.0814 99.8887 12.0962C99.148 12.1184 98.3332 12.1184 97.4444 12.1184H97.4443ZM97.6591 18.1776C97.3776 18.6369 97.2369 19.1258 97.2369 19.6443V20.5035C97.2369 21.0221 97.3776 21.5109 97.6591 21.9702C97.9406 22.4294 98.3406 22.8368 98.8665 23.1776C99.3924 23.5183 100.029 23.7924 100.785 23.9924C101.541 24.1924 102.392 24.2961 103.341 24.2961C104.289 24.2961 105.141 24.1924 105.896 23.9924C106.652 23.7924 107.289 23.5257 107.815 23.1776C108.34 22.8294 108.74 22.4294 109.022 21.9702C109.303 21.5109 109.444 21.0221 109.444 20.5035V19.6443C109.444 19.1258 109.303 18.6369 109.022 18.1776C108.74 17.7184 108.34 17.311 107.815 16.9702C107.289 16.6295 106.652 16.3554 105.896 16.1554C105.141 15.9554 104.289 15.8517 103.341 15.8517C102.392 15.8517 101.541 15.9554 100.785 16.1554C100.029 16.3554 99.3924 16.6221 98.8665 16.9702C98.3406 17.3184 97.9406 17.7184 97.6591 18.1776ZM107.059 18.985C107.244 19.2517 107.34 19.511 107.34 19.7702V20.3702C107.34 20.6295 107.252 20.8887 107.059 21.1554C106.866 21.422 106.6 21.6591 106.259 21.8591C105.918 22.0591 105.496 22.2294 105 22.3554C104.511 22.4813 103.948 22.548 103.333 22.548C102.718 22.548 102.163 22.4813 101.666 22.3554C101.17 22.222 100.748 22.0591 100.407 21.8591C100.059 21.6517 99.7924 21.422 99.6072 21.1554C99.422 20.8887 99.3257 20.6295 99.3257 20.3702V19.7702C99.3257 19.511 99.422 19.2517 99.6072 18.985C99.7998 18.7184 100.059 18.4813 100.407 18.2813C100.748 18.0813 101.17 17.911 101.666 17.785C102.163 17.6591 102.718 17.5925 103.333 17.5925C103.948 17.5925 104.503 17.6591 105 17.785C105.496 17.9184 105.911 18.0813 106.259 18.2813C106.607 18.4887 106.874 18.7184 107.059 18.985ZM107.266 4V15.7184H109.377V4H107.266ZM69.2235 10.6521H67.0236V8.82244H69.2235V4.25952H71.2457V14.815H69.2235V10.6521ZM74.3487 4H72.3042V16.7554H74.3487V4ZM70.2334 20.4728C70.6638 20.7264 71.1536 21.015 71.8436 21.1777L71.8362 21.1703C72.5696 21.3481 74.0362 21.4444 75.014 20.4962V22.511C72.0955 24.2962 68.6881 22.274 67.2807 20.4296C65.8733 22.2814 62.4659 24.2962 59.5474 22.511V20.4962C61.2363 21.911 63.1771 21.2073 64.5104 20.3703C65.103 19.9777 65.4881 19.6074 65.8585 19.1111C66.2605 18.5698 66.232 17.5631 66.208 16.714V16.714C66.1988 16.3896 66.1903 16.0881 66.2066 15.8444H68.3622C68.3786 16.0881 68.37 16.3895 68.3609 16.714V16.714V16.714C68.3368 17.5631 68.3084 18.5698 68.7103 19.1111C69.0807 19.6 69.4659 19.9777 70.0585 20.3703C70.1159 20.4035 70.174 20.4378 70.2333 20.4727L70.2334 20.4728ZM87.8995 20.3693C87.3069 19.9767 86.9217 19.5989 86.5513 19.11C86.3143 18.7915 86.2328 18.3026 86.2032 17.7841V16.6804L86.2037 16.6574C86.211 16.3551 86.2176 16.0746 86.2032 15.8434V15.1101H88.0402C89.055 15.1101 89.9291 14.3916 90.1217 13.399L91.6328 5.63611H78.6181L80.1292 13.399C80.3218 14.3916 81.1958 15.1101 82.2106 15.1101H84.0477V15.8434C84.0332 16.0746 84.0399 16.3551 84.0471 16.6575L84.0477 16.6804V17.7841C84.018 18.3026 83.9365 18.7915 83.6995 19.11C83.3291 19.6063 82.944 19.9767 82.3514 20.3693C81.018 21.2063 78.3292 21.4656 76.6403 20.0508V22.0359C79.5662 24.0804 83.7143 22.2804 85.1217 20.4286C86.5291 22.2804 90.6772 24.0804 93.6031 22.0359V20.0508C91.9216 21.4656 89.2328 21.1989 87.8921 20.3693H87.8995ZM85.1291 13.3027H82.9292C82.2995 13.3027 81.7588 12.8508 81.6403 12.236L80.7366 7.44349H89.5291L88.6254 12.236C88.5069 12.8583 87.9661 13.3027 87.3365 13.3027H85.1365H85.1291ZM66.8594 12.6438C67.1556 12.6216 67.4518 12.5993 67.7407 12.5697L67.8666 14.2734C66.9036 14.3771 65.9036 14.4438 64.8518 14.4882C63.7999 14.5327 62.6074 14.5549 61.274 14.5549H58V12.8068H60.1704L59.0593 7.0957H58.0667V5.34757H67.5036V7.0957H66.5925L65.4962 12.7327L65.9333 12.7179C66.2518 12.6882 66.5555 12.666 66.8592 12.6438L66.8594 12.6438ZM64.837 7.0957H61.6888L61.6963 7.08829H60.8296L60.8444 7.16237L61.7407 11.9031C61.8074 12.2956 62.0518 12.6142 62.3703 12.7993H62.8962C62.9629 12.7993 63.0314 12.7975 63.1 12.7956C63.1685 12.7938 63.237 12.7919 63.3037 12.7919C63.6222 12.6068 63.8518 12.2882 63.9259 11.9105L64.8222 7.16977L64.837 7.0957Z" fill="#FFFFFC"/>
</svg>
