<svg width="117" height="111" viewBox="0 0 117 111" fill="none" xmlns="http://www.w3.org/2000/svg">
<path fill-rule="evenodd" clip-rule="evenodd" d="M48.8694 10.4142C48.8694 16.1657 44.2068 20.8283 38.4552 20.8283C32.7037 20.8283 28.0411 16.1657 28.0411 10.4142C28.0411 4.66258 32.7037 0 38.4552 0C44.2068 0 48.8694 4.66258 48.8694 10.4142ZM94.6704 58.1826C94.6704 37.9573 78.2795 21.5665 58.0543 21.5665C37.829 21.5665 21.4382 37.9573 21.4382 58.1826H94.6704ZM10.4142 48.6748C16.1657 48.6748 20.8283 44.0122 20.8283 38.2606C20.8283 32.509 16.1657 27.8464 10.4142 27.8464C4.66258 27.8464 0 32.509 0 38.2606C0 44.0122 4.66258 48.6748 10.4142 48.6748ZM77.9672 20.9636C83.7188 20.9636 88.3814 16.301 88.3814 10.5494C88.3814 4.79786 83.7188 0.135279 77.9672 0.135279C72.2156 0.135279 67.553 4.79786 67.553 10.5494C67.553 16.301 72.2156 20.9636 77.9672 20.9636ZM116.226 38.5866C116.226 44.3381 111.563 49.0007 105.812 49.0007C100.06 49.0007 95.3974 44.3381 95.3974 38.5866C95.3974 32.835 100.06 28.1724 105.812 28.1724C111.563 28.1724 116.226 32.835 116.226 38.5866Z" fill="#FFFFFC"/>
<path fill-rule="evenodd" clip-rule="evenodd" d="M85.6597 85.6758V71.3888L85.6445 71.3736H81.3082V89.4796C84.2599 89.4796 86.8465 89.4643 89.0375 89.4339C91.2437 89.4035 93.2064 89.3426 94.9714 89.2513C96.7363 89.16 98.0752 88.9318 99.5359 88.6123C100.601 88.3841 102.472 87.669 103.918 86.7713L103.948 82.6632C102.412 83.7739 101.194 84.1695 99.6576 84.6564C98.2883 85.0824 96.5385 85.4323 95.1083 85.4932C93.6781 85.5541 92.2022 85.5997 90.6807 85.6301C89.1592 85.6758 87.4857 85.6758 85.6599 85.6758H85.6597ZM86.101 98.1218C85.5228 99.0651 85.2337 100.069 85.2337 101.134V102.899C85.2337 103.964 85.5228 104.969 86.101 105.912C86.6791 106.855 87.5007 107.692 88.581 108.392C89.6613 109.092 90.9698 109.655 92.5217 110.066C94.0737 110.476 95.8234 110.689 97.771 110.689C99.7185 110.689 101.468 110.476 103.02 110.066C104.572 109.655 105.881 109.107 106.961 108.392C108.041 107.677 108.863 106.855 109.441 105.912C110.019 104.969 110.308 103.964 110.308 102.899V101.134C110.308 100.069 110.019 99.0651 109.441 98.1218C108.863 97.1784 108.041 96.3416 106.961 95.6417C105.881 94.9418 104.572 94.3788 103.02 93.968C101.468 93.5572 99.7185 93.3442 97.771 93.3442C95.8234 93.3442 94.0737 93.5572 92.5217 93.968C90.9698 94.3788 89.6613 94.9266 88.581 95.6417C87.5007 96.3568 86.6791 97.1784 86.101 98.1218ZM105.409 99.7802C105.789 100.328 105.987 100.86 105.987 101.393V102.625C105.987 103.158 105.805 103.69 105.409 104.238C105.013 104.786 104.466 105.273 103.766 105.684C103.066 106.094 102.199 106.444 101.179 106.703C100.175 106.962 99.0186 107.099 97.7557 107.099C96.4929 107.099 95.3517 106.962 94.3323 106.703C93.3129 106.429 92.4457 106.094 91.7458 105.684C91.0306 105.258 90.4829 104.786 90.1025 104.238C89.7221 103.69 89.5244 103.158 89.5244 102.625V101.393C89.5244 100.86 89.7221 100.328 90.1025 99.7802C90.4981 99.2325 91.0306 98.7456 91.7458 98.3348C92.4457 97.924 93.3129 97.574 94.3323 97.3154C95.3517 97.0567 96.4929 96.9198 97.7557 96.9198C99.0186 96.9198 100.16 97.0567 101.179 97.3154C102.199 97.5892 103.051 97.924 103.766 98.3348C104.481 98.7608 105.029 99.2325 105.409 99.7802ZM105.835 69V93.0703H110.171V69H105.835ZM27.6988 82.663H23.1799V78.9048H27.6988V69.5323H31.8525V91.2139H27.6988V82.663ZM38.2271 69H34.0277V95.2005H38.2271V69ZM29.7713 102.836C30.6552 103.356 31.6613 103.949 33.0788 104.284L33.0636 104.268C34.5699 104.634 37.5824 104.831 39.5908 102.884V107.022C33.5961 110.689 26.5971 106.535 23.7062 102.747C20.8154 106.551 13.8164 110.689 7.82164 107.022V102.884C11.2907 105.79 15.2771 104.344 18.0158 102.625C19.233 101.819 20.0242 101.058 20.7849 100.039C21.6106 98.9267 21.5521 96.859 21.5028 95.1148C21.4839 94.4484 21.4664 93.8293 21.5001 93.3287H25.9277C25.9613 93.8293 25.9438 94.4484 25.9249 95.1148C25.8756 96.859 25.8171 98.9267 26.6428 100.039C27.4035 101.043 28.1947 101.819 29.4119 102.625C29.5299 102.693 29.6494 102.764 29.7713 102.836ZM66.0614 102.625C64.8442 101.818 64.053 101.042 63.2922 100.038C62.8053 99.3839 62.638 98.3797 62.5771 97.3146V95.0476L62.5782 95.0006C62.593 94.3795 62.6068 93.8032 62.5771 93.3283V91.822H66.3505C68.4349 91.822 70.2303 90.3461 70.6259 88.3073L73.7298 72.3618H46.9968L50.1007 88.3073C50.4963 90.3461 52.2917 91.822 54.3762 91.822H58.1495V93.3283C58.1198 93.8031 58.1336 94.3792 58.1484 95.0002V95.0003L58.1495 95.0476V97.3146C58.0886 98.3797 57.9213 99.3839 57.4344 100.038C56.6736 101.058 55.8824 101.818 54.6652 102.625C51.9265 104.344 46.4034 104.877 42.9344 101.97V106.048C48.9443 110.247 57.4648 106.55 60.3557 102.746C63.2466 106.55 71.767 110.247 77.777 106.048V101.97C74.3232 104.877 68.8001 104.329 66.0462 102.625H66.0614ZM60.3709 88.1095H55.852C54.5587 88.1095 53.448 87.1814 53.2046 85.9185L51.3483 76.0743H69.4087L67.5524 85.9185C67.309 87.1966 66.1983 88.1095 64.905 88.1095H60.3861H60.3709ZM22.8421 86.7559C23.4506 86.7103 24.0591 86.6647 24.6524 86.6038L24.9111 90.1033C22.9331 90.3163 20.8791 90.4532 18.7185 90.5445C16.558 90.6358 14.1083 90.6815 11.3696 90.6815H4.64453V87.0907H9.10258L6.82031 75.3598H4.78146V71.7691H24.1655V75.3598H22.2941L20.0422 86.9385L20.9399 86.9081C21.5942 86.8472 22.218 86.8016 22.8418 86.756L22.8421 86.7559ZM18.6881 75.3598H12.2217L12.2369 75.3446H10.4567L10.4871 75.4968L12.3282 85.2344C12.4651 86.0408 12.9672 86.6951 13.6215 87.0755H14.7017C14.8387 87.0755 14.9794 87.0717 15.1202 87.0679C15.2609 87.0641 15.4016 87.0603 15.5386 87.0603C16.1928 86.6799 16.6645 86.0256 16.8166 85.2497L18.6577 75.512L18.6881 75.3598Z" fill="#FFFFFC"/>
</svg>
